<?xml version="1.0" encoding="UTF-8" standalone="no"?>
<svg
   data-v-3e8bcaf8=""
   data-v-232b247e=""
   viewBox="0 0 1000 317.22581"
   focusable="false"
   aria-label="Multiversus"
   role="img"
   class="logo mb-3"
   style="color:#ffffff"
   width="1000"
   height="317.2258"
   version="1.1"
   id="svg4"
   sodipodi:docname="Multiversus_long_logo.svg"
   inkscape:version="1.1.2 (b8e25be833, 2022-02-05)"
   xmlns:inkscape="http://www.inkscape.org/namespaces/inkscape"
   xmlns:sodipodi="http://sodipodi.sourceforge.net/DTD/sodipodi-0.dtd"
   xmlns="http://www.w3.org/2000/svg"
   xmlns:svg="http://www.w3.org/2000/svg">
  <defs
     id="defs8" />
  <sodipodi:namedview
     id="namedview6"
     pagecolor="#ffffff"
     bordercolor="#666666"
     borderopacity="1.0"
     inkscape:pageshadow="2"
     inkscape:pageopacity="0.0"
     inkscape:pagecheckerboard="0"
     showgrid="false"
     inkscape:zoom="0.5"
     inkscape:cx="493"
     inkscape:cy="114"
     inkscape:window-width="1366"
     inkscape:window-height="705"
     inkscape:window-x="-8"
     inkscape:window-y="-8"
     inkscape:window-maximized="1"
     inkscape:current-layer="svg4" />
  <path
     data-v-3e8bcaf8=""
     d="m 670.75319,120.1916 h -0.25693 l -14.35179,1.06446 -5.5425,42.83512 h 11.7457 c 1.72515,0 3.4503,-0.62399 4.8084,-1.68845 1.3581,-1.06445 2.23903,-2.53267 2.42255,-4.03759 l 4.44135,-34.4663 c 0.11011,-0.95434 -0.18353,-1.87197 -0.80752,-2.60608 -0.62399,-0.7341 -1.54162,-1.13786 -2.49596,-1.13786 z M 970.26868,180.02129 1000,54.011893 533.7689,88.625018 l -41.66055,40.265742 -4.22111,107.47321 -0.14682,3.81735 31.89693,-126.11951 31.19953,-2.31243 -42.79841,157.97973 179.92952,25.51021 -0.84422,-16.26046 287.80649,27.85934 -4.73499,-126.7435 z m -362.64865,2.64278 h -28.29981 l -6.49685,50.17619 27.63912,2.0555 2.53266,16.99456 -59.71957,-4.44134 18.02232,-136.02995 60.96755,-4.51476 -7.12083,17.39833 -28.18969,2.0922 -5.17546,37.69638 h 28.33652 l -2.49596,18.53619 z m 73.96124,-3.52371 4.1477,78.87975 -27.05183,-2.01879 -3.89077,-73.33725 h -6.60695 l -9.65351,71.86904 -27.34547,-2.0555 19.38042,-146.19733 68.08838,-5.06533 5.39569,5.06533 -8.00176,61.33461 -14.4619,11.48877 z m 87.32197,79.68727 -7.34106,4.8084 -60.49038,-4.51476 -4.73499,-5.76273 6.71707,-50.72677 H 730.693 l -4.66158,35.0903 c -0.22023,1.68844 0.25694,3.34018 1.32139,4.66157 1.06446,1.3214 2.60608,2.09221 4.25782,2.23903 l 5.61592,0.40376 h 0.44046 c 3.04654,0 5.65262,-2.27573 6.05638,-5.28557 l 6.8639,-51.79122 c 0.0734,-1.3581 -0.40376,-2.64278 -1.3581,-3.59712 -1.17457,-1.17457 -1.98209,-1.68845 -3.59712,-1.68845 h -23.96858 l -14.13156,-14.24167 8.36882,-63.16987 7.92835,-5.87285 60.67391,-4.514756 5.24886,4.881809 0.14682,0.220232 v 0.183525 l -6.64366,50.2496 h -27.63911 l 3.89076,-29.43768 c 0.22023,-1.76185 -0.29364,-3.487 -1.46821,-4.80839 -1.17457,-1.3214 -2.82631,-2.09221 -4.58817,-2.09221 h -0.47717 l -5.76274,0.44047 c -2.86301,0.18352 -5.21215,2.42255 -5.61591,5.24886 l -5.10204,38.79753 c -0.18353,1.46821 0.25694,2.78961 1.32139,3.89077 1.06446,1.06445 2.60608,1.65174 4.33123,1.65174 h 23.23447 l 14.13156,14.24166 -10.64455,80.45809 z m 78.18236,11.15842 -60.45368,-4.47805 -4.73499,-5.76273 22.0232,-166.275148 27.93276,-2.092204 -20.26135,152.730872 c -0.22023,1.68845 0.25694,3.34019 1.32139,4.66158 1.06446,1.32139 2.60608,2.09221 4.29453,2.23903 l 5.61591,0.44046 h 0.44047 c 3.04654,0 5.65262,-2.27573 6.09308,-5.32227 l 20.6651,-156.107769 27.93276,-2.055499 -23.49141,177.250038 -7.34107,4.8084 z M 956.02702,150.40009 H 928.3879 l 5.65262,-42.39466 c 0.22023,-1.72515 -0.29364,-3.487 -1.46821,-4.8084 -1.17457,-1.32139 -2.82631,-2.0922 -4.58817,-2.0922 h -0.44046 l -5.79944,0.44046 c -2.86302,0.22024 -5.24886,2.45926 -5.57921,5.32228 l -6.82719,51.71781 c -0.18353,1.46821 0.29364,2.7896 1.32139,3.85406 1.06445,1.06445 2.60608,1.65174 4.33123,1.65174 h 23.23447 l 14.13155,14.24166 -12.25958,93.15813 -7.34106,4.8084 -60.52709,-4.47805 -4.73499,-5.76274 8.40552,-63.42681 h 27.60241 l -6.31332,47.79034 c -0.22023,1.68845 0.25694,3.34019 1.32139,4.62487 1.06446,1.32139 2.60608,2.09221 4.29453,2.23903 l 5.61591,0.40376 h 0.44047 c 3.04654,0 5.65262,-2.27573 6.05638,-5.28557 l 8.55234,-64.49127 c 0.0734,-1.3948 -0.36706,-2.64278 -1.3581,-3.59712 -1.17457,-1.17457 -1.98209,-1.68844 -3.56042,-1.68844 H 894.58229 L 880.45074,168.3857 890.508,92.258846 l 7.81824,-5.799442 0.11011,-0.07341 60.63721,-4.47805 5.43239,5.065336 -8.40552,63.42681 z M 290.19234,62.013654 292.94524,78.494347 33.144913,53.828366 37.8799,180.13141 0,306.76479 438.29834,274.24387 455.29291,317.22581 459.29379,119.09044 434.26075,83.633094 290.19234,61.976949 Z M 145.72016,271.60109 161.50345,152.63911 121.67817,273.39965 98.517105,275.08809 91.689913,152.74923 75.245926,276.81324 49.5889,278.68522 l 23.271179,-175.5616 -3.37689,-20.261338 42.247831,3.119953 4.8084,139.773895 41.84408,-136.286889 37.51284,2.789605 -23.4547,177.323444 -26.68478,1.98209 z m 108.7946,-8.07518 -61.70166,4.58817 -5.65262,-5.02863 22.13331,-169.725444 27.74923,1.982088 L 217.58919,242.09 c -0.22023,1.76186 0.29365,3.52371 1.46822,4.8084 1.17457,1.32139 2.82631,2.0922 4.55146,2.0922 h 0.47717 l 5.76273,-0.44046 c 2.86302,-0.22023 5.21216,-2.42255 5.57921,-5.28557 L 254.8451,96.663486 282.22728,98.682279 261.12171,257.68977 Z m 19.23359,-1.4315 21.50932,-162.457793 27.34547,2.055503 -18.71972,141.38893 25.06974,-1.87198 2.7529,16.59081 z m 95.7275,-7.08413 -27.93276,2.0555 17.98561,-135.73631 -23.4547,-1.72515 -2.86302,-17.14139 78.69623,5.83615 -7.34107,16.37057 -17.65526,-1.32139 z m 77.04448,-132.2126 -16.95786,127.77125 -27.89605,2.0555 19.01336,-143.62795 15.70988,1.17457 10.09397,12.66334 z M 504.8084,48.579504 c -2.49596,0 -4.73499,0.954338 -11.74571,5.946263 v 26.831596 c 12.11276,-13.544267 15.56306,-22.79401 15.56306,-27.528997 0,-3.340185 -1.54162,-5.212157 -3.81735,-5.212157 z m 23.52811,-16.811041 c 0,-3.92747 -0.36705,-7.854941 -1.06445,-11.525474 -0.11012,-0.477169 -0.22023,-0.660696 -0.47717,-0.697401 l -8.55234,-2.239025 -1.17457,-4.881809 c -0.0734,-0.220232 -0.11012,-0.403759 -0.36706,-0.477169 L 507.92835,9.5617384 506.8639,4.9368668 C 506.7905,4.5698135 506.64366,4.3862869 506.38673,4.3495816 L 483.51931,0.05505799 c -0.36706,-0.07341065 -0.77081,-0.07341065 -1.13787,0 L 459.55073,4.2761709 c -0.22024,0.073411 -0.40376,0.220232 -0.47717,0.5872853 l -1.06446,4.6248715 -8.77257,2.3858463 c -0.22023,0.07341 -0.29364,0.220232 -0.36705,0.477169 l -1.17457,4.881809 -8.55235,2.239025 c -0.22023,0.07341 -0.36705,0.220232 -0.47717,0.697402 -0.6974,3.670533 -1.06445,7.598003 -1.06445,11.525473 0,34.209367 17.80208,63.903979 44.41345,81.595948 0.36705,0.22023 0.6974,0.47717 0.95434,0.47717 0.25693,0 0.58728,-0.22023 0.95434,-0.47717 26.61136,-17.691969 44.41344,-47.386581 44.41344,-81.595948 z m -48.70797,65.849361 c 0,0.220232 -0.22023,0.367053 -0.47717,0.110116 -6.53355,-7.487887 -10.93819,-16.627514 -13.91132,-26.611364 l -4.51475,2.863016 c -1.17457,0.844222 -2.12891,0.477169 -2.86302,-0.844223 -6.05638,-10.681251 -9.98385,-28.263104 -10.3142,-40.596094 0,-0.587286 0.11012,-0.954339 0.58729,-1.541624 1.54162,-1.908677 3.4503,-3.817354 5.21216,-5.469094 0.36705,-0.367054 0.6974,-0.110116 0.6974,0.477169 0,15.196006 2.60608,29.327558 6.75378,38.577301 0.36705,0.697402 0.6974,0.697402 1.17457,0.367054 l 1.32139,-0.844223 c -2.49596,-11.048304 -3.92747,-25.767141 -3.56042,-42.761709 0,-0.587285 0.11012,-0.844222 0.47717,-1.064454 1.32139,-0.844223 3.67054,-2.12891 5.68933,-2.973132 0.58728,-0.220232 0.6974,-0.110116 0.6974,0.367053 -0.36705,24.702687 1.65174,41.807371 6.05638,55.461753 0.11012,0.367054 0.47717,0.220232 0.47717,-0.110116 -0.22023,-4.991925 -0.22023,-9.396564 -0.22023,-14.718837 l -0.22024,-42.614888 c 0,-0.477169 0.11012,-0.697401 0.58729,-0.844222 2.01879,-0.477169 3.81735,-0.844223 5.94626,-1.064455 0.22024,0 0.36706,0.110116 0.36706,0.367054 v 83.431214 z m 7.12084,0.110116 c -0.22024,0.220232 -0.47717,0.110116 -0.47717,-0.110116 V 14.113199 c 0,-0.220232 0.11011,-0.367053 0.36705,-0.367053 15.93011,1.064454 26.13419,7.708119 26.13419,17.324916 0,4.037586 -1.54162,7.965056 -4.1477,10.791366 5.21216,1.431508 7.23095,5.358979 7.23095,10.571135 0,9.249743 -6.75378,24.592571 -29.10732,45.220966 z m 19.01336,-66.950521 c 0,-4.734988 -5.4691,-8.662458 -12.70005,-9.139627 v 24.812803 c 9.13963,-5.358978 12.70005,-10.681251 12.70005,-15.673176 z"
     style="stroke-width:3.67053"
     fill="#fc0000"
     id="path2"
     sodipodi:nodetypes="ccccssccsccccccccccccccccccccccccccccccccccccccccccccccccccsccsccsscccccccccccsscccccsccccccccccsccscccccccccsscccccsccccccccccccscccscccccccccccccccccccccccccccccccccccccccccccscccccccccccccccccccccccccccccccccscccccccccccccccccccccscscccccccccccscccccccccccccscccsscscsccsccs" />
</svg>
